<?xml version="1.0" encoding="utf-8"?>
<!-- Generator: Adobe Illustrator 19.1.0, SVG Export Plug-In . SVG Version: 6.00 Build 0)  -->
<svg version="1.1" id="Layer_1" xmlns="http://www.w3.org/2000/svg" xmlns:xlink="http://www.w3.org/1999/xlink" x="0px" y="0px"
	 viewBox="121 157 853.4 480" style="enable-background:new 121 157 853.4 480;" xml:space="preserve">
<style type="text/css">
	.st0{fill:#FFFFFF;}
	.st1{font-family:'Dynasty';}
	.st2{font-size:90.2544px;}
	.st3{fill:#5A9EAA;stroke:#000000;stroke-width:2;stroke-miterlimit:10;}
	.st4{fill:#F4E9E9;}
	.st5{font-family:'Aller-Light';}
	.st6{font-size:32.2287px;}
	.st7{font-family:'Aller-LightItalic';}
	.st8{font-size:12px;}
	.st9{font-family:'AllerDisplay-Regular';}
	.st10{font-size:38.4348px;}
	.st11{font-size:18.6563px;}
</style>
<g id="BackgroundOpacity_Mask_3_">
	
		<image style="overflow:visible;enable-background:new    ;" width="3558" height="2000" id="BackgroundOpacity_Mask_2_" xlink:href="9A2A109C.jpeg"  transform="matrix(0.2399 0 0 0.24 121 157)">
	</image>
</g>
<g id="Background_2_">
	<g id="Background_xA0_Image_1_">
		<g>
			
				<image style="overflow:visible;enable-background:new    ;" width="3558" height="2000" id="Background_xA0_Image" xlink:href="9A2A109C.png"  transform="matrix(0.2399 0 0 0.24 121 157)">
			</image>
		</g>
	</g>
</g>
<g id="Design_1_">
	<g id="Vector_Smart_Object13__x28_Double_Click_to_Edit_x29__xA0_Image_3_">
		
			<image style="overflow:visible;enable-background:new    ;" width="2121" height="1971" id="Vector_Smart_Object13__x28_Double_Click_to_Edit_x29__xA0_Image_2_" xlink:href="9A2A109B.png"  transform="matrix(0.2394 0 0 0.2398 466.6 164.44)">
		</image>
	</g>
	<g id="Vector_Smart_Object13__x28_Double_Click_to_Edit_x29__xA0_Image_1_">
		
			<image style="overflow:visible;enable-background:new    ;" width="1504" height="2000" id="Vector_Smart_Object13__x28_Double_Click_to_Edit_x29__xA0_Image" xlink:href="9A2A10A4.png"  transform="matrix(0.2395 0 0 0.24 121 157)">
		</image>
	</g>
	<g id="Vector_Smart_Object4__x28_Double_Click_to_Edit_x29__xA0_Image_11_">
		
			<image style="overflow:visible;enable-background:new    ;" width="992" height="338" id="Vector_Smart_Object4__x28_Double_Click_to_Edit_x29__xA0_Image_10_" xlink:href="9A2A10A7.png"  transform="matrix(0.239 0 0 0.2372 341.8 157)">
		</image>
	</g>
	<g id="Vector_Smart_Object4__x28_Double_Click_to_Edit_x29__xA0_Image_9_">
		
			<image style="overflow:visible;enable-background:new    ;" width="379" height="883" id="Vector_Smart_Object4__x28_Double_Click_to_Edit_x29__xA0_Image_8_" xlink:href="9A2A10A5.png"  transform="matrix(0.2375 0 0 0.2395 121 157)">
		</image>
	</g>
	<g id="Vector_Smart_Object11__x28_Double_Click_to_Edit_x29__xA0_Image_1_">
		
			<image style="overflow:visible;enable-background:new    ;" width="1650" height="1596" id="Vector_Smart_Object11__x28_Double_Click_to_Edit_x29__xA0_Image" xlink:href="9A2A10AB.png"  transform="matrix(0.2396 0 0 0.2398 579.16 224.2)">
		</image>
	</g>
	<g id="Vector_Smart_Object10__x28_Double_Click_to_Edit_x29__xA0_Image_1_">
		
			<image style="overflow:visible;enable-background:new    ;" width="1575" height="1467" id="Vector_Smart_Object10__x28_Double_Click_to_Edit_x29__xA0_Image" xlink:href="9A2A10AC.png"  transform="matrix(0.2394 0 0 0.2393 597.4 240.04)">
		</image>
	</g>
	<g id="Vector_Smart_Object8__x28_Double_Click_to_Edit_x29__xA0_Image_3_">
		
			<image style="overflow:visible;enable-background:new    ;" width="683" height="196" id="Vector_Smart_Object8__x28_Double_Click_to_Edit_x29__xA0_Image_2_" xlink:href="9A2A10AF.png"  transform="matrix(0.2382 0 0 0.2388 720.52 590.2)">
		</image>
	</g>
	<g id="Vector_Smart_Object8__x28_Double_Click_to_Edit_x29__xA0_Image_1_">
		
			<image style="overflow:visible;enable-background:new    ;" width="708" height="313" id="Vector_Smart_Object8__x28_Double_Click_to_Edit_x29__xA0_Image" xlink:href="481466EB.png"  transform="matrix(0.2386 0 0 0.2369 367.24 562.84)">
		</image>
	</g>
	<g id="Vector_Smart_Object3__x28_Double_Click_to_Edit_x29__xA0_Image_1_">
		
			<image style="overflow:visible;enable-background:new    ;" width="471" height="533" id="Vector_Smart_Object3__x28_Double_Click_to_Edit_x29__xA0_Image" xlink:href="481466E9.png"  transform="matrix(0.2364 0 0 0.2395 836.44 509.32)">
		</image>
	</g>
	<g id="Vector_Smart_Object4__x28_Double_Click_to_Edit_x29__xA0_Image_7_">
		
			<image style="overflow:visible;enable-background:new    ;" width="538" height="400" id="Vector_Smart_Object4__x28_Double_Click_to_Edit_x29__xA0_Image_6_" xlink:href="481466EF.png"  transform="matrix(0.2378 0 0 0.2376 796.36 541.96)">
		</image>
	</g>
	<g id="Vector_Smart_Object7__x28_Double_Click_to_Edit_x29__xA0_Image_1_">
		
			<image style="overflow:visible;enable-background:new    ;" width="750" height="813" id="Vector_Smart_Object7__x28_Double_Click_to_Edit_x29__xA0_Image" xlink:href="481466EA.png"  transform="matrix(0.2394 0 0 0.2394 121 442.36)">
		</image>
	</g>
	<g id="Vector_Smart_Object4__x28_Double_Click_to_Edit_x29__xA0_Image_5_">
		
			<image style="overflow:visible;enable-background:new    ;" width="283" height="150" id="Vector_Smart_Object4__x28_Double_Click_to_Edit_x29__xA0_Image_4_" xlink:href="481466F5.png"  transform="matrix(0.2349 0 0 0.2272 144.28 469.96)">
		</image>
	</g>
	<g id="Vector_Smart_Object6__x28_Double_Click_to_Edit_x29__xA0_Image_3_">
		
			<image style="overflow:visible;enable-background:new    ;" width="283" height="146" id="Vector_Smart_Object6__x28_Double_Click_to_Edit_x29__xA0_Image_2_" xlink:href="481466F6.png"  transform="matrix(0.2349 0 0 0.2334 300.52 168.52)">
		</image>
	</g>
	<g id="Vector_Smart_Object6__x28_Double_Click_to_Edit_x29__xA0_Image_1_">
		
			<image style="overflow:visible;enable-background:new    ;" width="283" height="146" id="Vector_Smart_Object6__x28_Double_Click_to_Edit_x29__xA0_Image" xlink:href="481466F7.png"  transform="matrix(0.2349 0 0 0.2334 449.32 583.72)">
		</image>
	</g>
	<g id="Vector_Smart_Object2__x28_Double_Click_to_Edit_x29__xA0_Image_1_">
		
			<image style="overflow:visible;enable-background:new    ;" width="325" height="583" id="Vector_Smart_Object2__x28_Double_Click_to_Edit_x29__xA0_Image" xlink:href="481466F9.png"  transform="matrix(0.2348 0 0 0.24 886.6 497.08)">
		</image>
	</g>
	<g id="Vector_Smart_Object5__x28_Double_Click_to_Edit_x29__xA0_Image_1_">
		
			<image style="overflow:visible;enable-background:new    ;" width="679" height="388" id="Vector_Smart_Object5__x28_Double_Click_to_Edit_x29__xA0_Image" xlink:href="481466FB.png"  transform="matrix(0.2389 0 0 0.2375 812.2 544.84)">
		</image>
	</g>
	<g id="Vector_Smart_Object4__x28_Double_Click_to_Edit_x29__xA0_Image_3_">
		
			<image style="overflow:visible;enable-background:new    ;" width="504" height="508" id="Vector_Smart_Object4__x28_Double_Click_to_Edit_x29__xA0_Image_2_" xlink:href="481466FE.png"  transform="matrix(0.239 0 0 0.2395 127.72 515.32)">
		</image>
	</g>
	<g id="Vector_Smart_Object4__x28_Double_Click_to_Edit_x29__xA0_Image_1_">
		
			<image style="overflow:visible;enable-background:new    ;" width="563" height="292" id="Vector_Smart_Object4__x28_Double_Click_to_Edit_x29__xA0_Image" xlink:href="48146712.png"  transform="matrix(0.2379 0 0 0.2384 402.04 157)">
		</image>
	</g>
	<g id="Vector_Smart_Object1__x28_Double_Click_to_Edit_x29__xA0_Image_1_">
		
			<image style="overflow:visible;enable-background:new    ;" width="563" height="417" id="Vector_Smart_Object1__x28_Double_Click_to_Edit_x29__xA0_Image" xlink:href="48146711.png"  transform="matrix(0.2396 0 0 0.2371 130.84 189.76)">
		</image>
	</g>
	<g id="Vector_Smart_Object__x28_Double_Click_to_Edit_x29__xA0_Image_1_">
		
			<image style="overflow:visible;enable-background:new    ;" width="596" height="413" id="Vector_Smart_Object__x28_Double_Click_to_Edit_x29__xA0_Image" xlink:href="4814671E.png"  transform="matrix(0.2376 0 0 0.2383 296.44 538.6)">
		</image>
	</g>
</g>
<g id="Text_1_">
	<g id="TO_SCHOOL__x0D_">
	</g>
	<g id="OPEN_ADMISSION">
		<text transform="matrix(0.8828 0 0 1 198.2803 381.5474)" class="st0 st1 st2">OPTIME</text>
		<g>
			<path class="st3" d="M215.4,414c-1.4-0.3-2.7-0.7-3.8-1.1s-2.1-0.9-2.9-1.5s-1.4-1.2-1.9-1.9c-0.4-0.7-0.7-1.6-0.7-2.6
				c0-1.2,0.3-2.3,1-3.2c0.7-0.9,1.7-1.7,2.9-2.4c1.3-0.7,2.8-1.1,4.6-1.5c1.8-0.3,3.8-0.5,6-0.5c2,0,3.9,0.1,5.7,0.3
				c1.8,0.2,3.8,0.6,5.9,1c-0.2,0.7-0.4,1.5-0.8,2.4s-0.9,1.7-1.5,2.5c-1-0.3-2.2-0.5-3.5-0.8c-1.4-0.3-3-0.4-5-0.4
				c-0.6,0-1.2,0-1.8,0.1c-0.6,0.1-1.1,0.2-1.5,0.3s-0.8,0.4-1.1,0.6c-0.3,0.3-0.4,0.6-0.4,1c0,0.7,0.4,1.2,1.1,1.5
				c0.7,0.3,1.6,0.6,2.6,0.8l2.8,0.7c1.6,0.4,3.1,0.8,4.4,1.2c1.3,0.4,2.4,0.9,3.3,1.4c0.9,0.6,1.6,1.2,2.1,2
				c0.5,0.8,0.8,1.8,0.8,2.9c0,1.2-0.4,2.3-1.1,3.3c-0.7,1-1.8,1.8-3.2,2.5s-3.1,1.2-5.1,1.6s-4.4,0.6-7,0.6c-2.4,0-4.5-0.1-6.4-0.3
				c-1.8-0.2-3.8-0.6-5.9-1.1c0.2-0.8,0.4-1.7,0.8-2.6s0.9-1.8,1.4-2.8c3.6,0.9,6.7,1.4,9.3,1.4c2,0,3.5-0.2,4.6-0.5
				c1.1-0.4,1.7-1,1.7-1.8c0-0.4-0.1-0.7-0.3-0.9c-0.2-0.3-0.5-0.5-0.9-0.7c-0.4-0.2-0.8-0.3-1.3-0.5c-0.5-0.1-1-0.2-1.5-0.4
				L215.4,414z"/>
			<path class="st3" d="M255.8,425c-3.2,0-5.9-0.3-8.2-0.9s-4.2-1.5-5.7-2.7c-1.5-1.1-2.6-2.5-3.3-4c-0.7-1.5-1.1-3.2-1.1-5.1
				c0-1.8,0.4-3.5,1.1-5.1s1.8-2.9,3.3-4.1c1.5-1.1,3.4-2,5.7-2.7c2.3-0.7,5-1,8.2-1s5.9,0.3,8.2,1c2.3,0.7,4.2,1.6,5.7,2.7
				c1.5,1.1,2.6,2.5,3.3,4.1s1.1,3.3,1.1,5.1s-0.4,3.5-1.1,5.1c-0.7,1.5-1.8,2.9-3.3,4s-3.4,2-5.7,2.7
				C261.7,424.6,259,425,255.8,425z M255.8,419.7c5,0,7.4-2.5,7.4-7.4c0-5-2.5-7.5-7.4-7.5c-5,0-7.5,2.5-7.5,7.5
				c0,2.5,0.6,4.4,1.8,5.6C251.4,419.1,253.2,419.7,255.8,419.7z"/>
			<path class="st3" d="M279.9,399.9c1-0.1,2-0.2,2.8-0.2c0.9,0,1.6-0.1,2.3-0.1s1.5,0,2.4,0.1c0.9,0,1.8,0.1,2.8,0.2v19.3h13.4
				c0.2,0.6,0.3,1.1,0.4,1.5c0.1,0.4,0.1,0.8,0.1,1.2c0,0.4,0,0.8-0.1,1.2c-0.1,0.4-0.2,0.9-0.4,1.5h-23.7V399.9z"/>
			<path class="st3" d="M307,399.9c1.1-0.1,2.1-0.2,2.9-0.2c0.8,0,1.6-0.1,2.3-0.1c0.7,0,1.4,0,2.2,0.1c0.8,0,1.8,0.1,2.9,0.2v13.4
				c0,1.1,0.1,2.1,0.2,2.9c0.2,0.8,0.4,1.5,0.8,2s1,0.9,1.7,1.1c0.7,0.2,1.7,0.3,2.9,0.3c1.2,0,2.2-0.1,2.9-0.3
				c0.8-0.2,1.3-0.6,1.7-1.1s0.7-1.2,0.8-2c0.1-0.8,0.2-1.8,0.2-2.9v-13.4c1.2-0.1,2.1-0.2,2.9-0.2s1.5-0.1,2.2-0.1
				c0.7,0,1.5,0,2.3,0.1c0.8,0,1.8,0.1,2.9,0.2V414c0,1.7-0.2,3.2-0.7,4.6s-1.3,2.5-2.5,3.5c-1.2,1-2.8,1.7-4.9,2.2
				c-2.1,0.5-4.7,0.8-7.8,0.8s-5.7-0.3-7.8-0.8c-2.1-0.5-3.7-1.2-4.9-2.2c-1.2-1-2-2.1-2.5-3.5s-0.7-2.9-0.7-4.6L307,399.9
				L307,399.9z"/>
			<path class="st3" d="M353.2,405.2h-9.7c-0.3-1-0.5-1.9-0.5-2.7s0.2-1.6,0.5-2.7h29.7c0.2,0.5,0.3,1,0.3,1.4
				c0.1,0.4,0.1,0.8,0.1,1.2c0,0.8-0.2,1.7-0.5,2.7h-9.7v19.3c-2.1,0.2-3.8,0.3-5.1,0.3c-1.4,0-3.2-0.1-5.2-0.3v-19.2H353.2z"/>
			<path class="st3" d="M378,399.9c1-0.1,2-0.2,2.8-0.2c0.9,0,1.6-0.1,2.3-0.1c0.7,0,1.5,0,2.4,0.1c0.9,0,1.8,0.1,2.8,0.2v24.6
				c-2.1,0.2-3.8,0.3-5.1,0.3c-1.4,0-3.2-0.1-5.2-0.3L378,399.9L378,399.9z"/>
			<path class="st3" d="M412.4,425c-3.2,0-5.9-0.3-8.2-0.9c-2.3-0.6-4.2-1.5-5.7-2.7c-1.5-1.1-2.6-2.5-3.3-4
				c-0.7-1.5-1.1-3.2-1.1-5.1c0-1.8,0.4-3.5,1.1-5.1s1.8-2.9,3.3-4.1c1.5-1.1,3.4-2,5.7-2.7c2.3-0.7,5-1,8.2-1s5.9,0.3,8.2,1
				c2.3,0.7,4.2,1.6,5.7,2.7c1.5,1.1,2.6,2.5,3.3,4.1c0.7,1.6,1.1,3.3,1.1,5.1s-0.4,3.5-1.1,5.1c-0.7,1.5-1.8,2.9-3.3,4
				s-3.4,2-5.7,2.7C418.3,424.6,415.6,425,412.4,425z M412.4,419.7c5,0,7.4-2.5,7.4-7.4c0-5-2.5-7.5-7.4-7.5c-5,0-7.5,2.5-7.5,7.5
				c0,2.5,0.6,4.4,1.8,5.6C408,419.1,409.9,419.7,412.4,419.7z"/>
			<path class="st3" d="M436.5,399.9c0.9-0.1,1.6-0.2,2.3-0.2s1.4-0.1,2-0.1c0.7,0,1.4,0,2.2,0.1c0.8,0.1,1.4,0.1,1.9,0.2l13.5,13.5
				v-13.5c1-0.1,1.9-0.2,2.7-0.2s1.5-0.1,2.2-0.1s1.4,0,2.1,0.1c0.7,0,1.5,0.1,2.3,0.2l-0.1,24.6c-0.4,0.1-0.9,0.1-1.7,0.2
				c-0.7,0.1-1.5,0.1-2.4,0.1c-1,0-1.8,0-2.6-0.1c-0.8-0.1-1.3-0.1-1.7-0.2L445.9,411v13.4c-1.7,0.2-3.3,0.3-4.6,0.3s-3-0.1-4.7-0.3
				L436.5,399.9L436.5,399.9z"/>
			<path class="st3" d="M483.4,414c-1.4-0.3-2.7-0.7-3.8-1.1c-1.1-0.4-2.1-0.9-2.9-1.5s-1.4-1.2-1.9-1.9c-0.4-0.7-0.7-1.6-0.7-2.6
				c0-1.2,0.3-2.3,1-3.2c0.7-0.9,1.7-1.7,2.9-2.4c1.3-0.7,2.8-1.1,4.6-1.5c1.8-0.3,3.8-0.5,6-0.5c2,0,3.9,0.1,5.7,0.3
				c1.8,0.2,3.8,0.6,5.9,1c-0.2,0.7-0.4,1.5-0.8,2.4s-0.9,1.7-1.5,2.5c-1-0.3-2.2-0.5-3.5-0.8c-1.4-0.3-3-0.4-5-0.4
				c-0.6,0-1.2,0-1.8,0.1c-0.6,0.1-1.1,0.2-1.5,0.3s-0.8,0.4-1.1,0.6c-0.3,0.3-0.4,0.6-0.4,1c0,0.7,0.4,1.2,1.1,1.5s1.6,0.6,2.6,0.8
				l2.8,0.7c1.6,0.4,3.1,0.8,4.4,1.2c1.3,0.4,2.4,0.9,3.3,1.4c0.9,0.6,1.6,1.2,2.1,2c0.5,0.8,0.8,1.8,0.8,2.9c0,1.2-0.4,2.3-1.1,3.3
				s-1.8,1.8-3.2,2.5c-1.4,0.7-3.1,1.2-5.1,1.6s-4.4,0.6-7,0.6c-2.4,0-4.5-0.1-6.4-0.3c-1.8-0.2-3.8-0.6-5.9-1.1
				c0.2-0.8,0.4-1.7,0.8-2.6s0.9-1.8,1.4-2.8c3.6,0.9,6.7,1.4,9.3,1.4c2,0,3.5-0.2,4.6-0.5c1.1-0.4,1.7-1,1.7-1.8
				c0-0.4-0.1-0.7-0.3-0.9c-0.2-0.3-0.5-0.5-0.9-0.7s-0.8-0.3-1.3-0.5c-0.5-0.1-1-0.2-1.5-0.4L483.4,414z"/>
		</g>
	</g>
	<g id="BACK__x0D_">
	</g>
	<g id="Address_1_">
	</g>
</g>
<g id="Social_Media_Icons_1_">
	<g id="Behance_xA0_Image_1_">
	</g>
	<g id="WhatsApp_xA0_Image_1_">
	</g>
	<g id="Twitter_xA0_Image_1_">
	</g>
	<g id="Facebook_xA0_Image_1_">
	</g>
	<g id="Instagram_xA0_Image_1_">
	</g>
</g>
<text transform="matrix(1.0835 0 0 1 739 384.7124)" class="st4 st5 st6">0705 949 874</text>
<text transform="matrix(1.0828 0 0 1 746.999 353.0801)" class="st4 st7 st8">Designed For Ugandan Primary Schools</text>
<text transform="matrix(1.0828 0 0 1 822.999 315.0802)" class="st4 st9 st10">OPTIME</text>
<text transform="matrix(1.0427 0 0 1 681 339.252)" class="st4 st5 st11">RECORDS MANAGEMENT SYSTEM</text>
</svg>
